<?xml version="1.0" encoding="UTF-8"?>
<svg width="111px" height="97px" viewBox="0 0 111 97" version="1.1" xmlns="http://www.w3.org/2000/svg" xmlns:xlink="http://www.w3.org/1999/xlink">
    <!-- Generator: Sketch 54 (76480) - https://sketchapp.com -->
    <title>verified_carbon 2</title>
    <desc>Created with Sketch.</desc>
    <defs>
        <linearGradient x1="50%" y1="0%" x2="50%" y2="100%" id="linearGradient-1">
            <stop stop-color="#0044FF" offset="0%"></stop>
            <stop stop-color="#000000" stop-opacity="0.5" offset="100%"></stop>
        </linearGradient>
        <path d="M109.74,1 L94.42,1.05 L56.19,67.27 L48.71,55 L31.63,55.34 L55.31,96.25 C55.481096,96.5839662 55.8247571,96.7940395 56.2,96.7940395 C56.5752429,96.7940395 56.918904,96.5839662 57.09,96.25 L110.63,2.54 C110.832802,2.22489954 110.842422,1.82286114 110.654921,1.4984221 C110.467421,1.17398305 110.114271,0.981597228 109.74,1 Z" id="path-2"></path>
    </defs>
    <g id="Page-1" stroke="none" stroke-width="1" fill="none" fill-rule="evenodd">
        <g id="verified_carbon" fill-rule="nonzero">
            <path d="M2,1.16 C1.63107332,1.1531943 1.28837755,1.35010336 1.10847039,1.67226269 C0.928563238,1.99442201 0.940682929,2.38947477 1.14,2.7 L7,12.75 L81.37,12.75 L87.92,1.16 L2,1.16 Z" id="Path" fill="#E70000"></path>
            <polygon id="Path" fill="#FF8C00" points="10.74 19.23 17.59 31.01 71.06 31.01 77.71 19.23"></polygon>
            <polygon id="Path" fill="#00811F" points="60.74 49.27 67.4 37.48 21.36 37.48 28.21 49.27"></polygon>
            <g id="Path">
                <use fill="#760089" style="mix-blend-mode: color-burn;" xlink:href="#path-2"></use>
                <use fill="url(#linearGradient-1)" xlink:href="#path-2"></use>
            </g>
        </g>
    </g>
</svg>